<?xml version="1.0" encoding="UTF-8"?>
<svg id="Layer_1" xmlns="http://www.w3.org/2000/svg" version="1.1" viewBox="0 0 877.7 298.7">
  <!-- Generator: Adobe Illustrator 30.1.0, SVG Export Plug-In . SVG Version: 2.1.1 Build 136)  -->
  <defs>
    <style>
      .st0 {
        fill: #00904a;
      }

      .st1 {
        fill: #fff;
      }

      .st2 {
        fill: #eb3d00;
      }

      .st3 {
        fill: #340e71;
      }
    </style>
  </defs>
  <g>
    <path class="st2" d="M19.2,8.7v164c0,20.6,13.3,46,33.6,67.1,27.3,28.4,68.1,49.4,86.7,50.1,0,0,0,0,0,0,0,0,0,0,0,0,18.6-.7,59.4-21.6,86.7-50.1,20.2-21.1,33.6-46.5,33.6-67.1V8.7H19.2Z"/>
    <g>
      <path class="st1" d="M186.1,78.2s4-2.4,12.4-8.7c8.4-6.2,12.3-19.3,12.3-19.3h-29.1s.2,4,.6,13.4c.3,9.4,3.8,14.6,3.8,14.6Z"/>
      <path class="st1" d="M207.4,98.1c6.6,4.7,11.7,6.2,11.7,6.2,0,0,3.9-6.3,2.8-15.9-1.1-9.6-4.4-19.2-4.4-19.2l-20.1,18.1s3.4,6.1,10.1,10.8Z"/>
      <path class="st1" d="M187.2,97.9l-11,12.9s2.4,6.1,21.1,15.6c18.7,9.4,28.1,7.8,28.1,7.8l-1.9-18.1s-10.2-4.3-18.3-8.3c-8.1-4-18-9.9-18-9.9Z"/>
      <path class="st1" d="M197.3,142.9c-18.6-9.2-32.7-20.4-32.7-20.4l-10,12.6s7.4,13,30.3,22.7c22.9,9.7,38.3,11.3,41.5,10.8,1.1-6.6,1.4-18,1.4-18,0,0-12,1.7-30.6-7.6Z"/>
      <path class="st1" d="M167.5,102.5l12.4-14.2s-4-9.3-6.4-18.1c-2.4-8.8-4.2-20-4.2-20l-19,.8s-.3,13.3,3.8,25.9c4.1,12.6,13.4,25.7,13.4,25.7Z"/>
      <path class="st1" d="M144.1,127l14.2-11.7s-9.3-13.2-14.9-28.6c-5.6-15.3-8.6-35.9-8.6-35.9l-16.3.9s.4,18.8,5.8,40.3c5.3,21.6,19.8,34.9,19.8,34.9Z"/>
      <path class="st1" d="M140.5,133.3l-42,44.8s-7,0-16.1,4.7c-9.1,4.7-20.7,19.7-20.7,19.7l20.3,3.1-.8,21.8s4.6-2.8,11.9-9.3c7.3-6.6,11.7-18.9,11.7-18.9l1.2-17.9,41.1-42.9-.9-7.8-5.8,2.8Z"/>
    </g>
  </g>
  <path class="st3" d="M438.6,35.5v31.8s-32.8-21.3-47.4-2.3,17.5,36.2,26.1,41.9c8.6,5.7,30.9,16,30.9,47.2s-29.7,40.8-49.5,45.5-50.1-7.4-50.1-7.4v-37.1s43,25.7,51.4,4.4-20.6-25-41.1-53-16.2-54.9,7.6-71c28.6-19.4,72.2,0,72.2,0Z"/>
  <path class="st2" d="M591.8,197.3h43.6l-47.2-168.4h-45.5l-51,168.4h45.7l5.3-29h42.3l6.8,29ZM547.5,142.1l13.8-74.7,17.5,74.7h-31.3Z"/>
  <path class="st0" d="M756,29.7h-67.8v167.6h43v-67.4h19c14.1,0,53.7-11.6,53.7-49.3s-25.9-50.9-48-50.9ZM730.8,101.9v-46.2c15.2,0,31.6.4,31.6,24.6s-31.6,21.6-31.6,21.6Z"/>
  <g>
    <path class="st2" d="M281.1,274.1v-1.5l7.4-.7v1.6c0,3,1.9,4.9,4.9,4.9s4.9-1.6,4.9-4-1.3-4.5-7-9c-7.6-5.9-9.7-9.1-9.7-13.7s4.3-10.3,11.6-10.3,11.6,4.1,11.6,10.3v1.1l-7.4.7v-1.2c0-3.2-1.5-4.9-4.2-4.9s-4.2,1.4-4.2,4,1.6,4.5,7,9c7.4,6.1,9.7,9.1,9.7,13.7s-5,10.3-12.3,10.3-12.3-4.3-12.3-10.3Z"/>
    <path class="st2" d="M315.8,241.9h21.7v6h-14.1v11.7h11.2v6h-11.2v12.3h14.1v6h-21.7v-41.8Z"/>
    <path class="st2" d="M358.1,266.5l-2.9,4.6v12.6h-7.6v-41.8h7.6v17l10.1-17h8.2l-10.7,17.8,11.5,24.1h-8.2l-8-17.2Z"/>
    <path class="st2" d="M382,274.2v-22.8c0-6,4.9-10.1,12.3-10.1s12.3,4.1,12.3,10.1v22.8c0,6-4.9,10.1-12.3,10.1s-12.3-4.1-12.3-10.1ZM398.8,274.2v-22.8c0-2.6-1.8-4.1-4.6-4.1s-4.6,1.5-4.6,4.1v22.8c0,2.6,1.8,4.1,4.6,4.1s4.6-1.5,4.6-4.1Z"/>
    <path class="st2" d="M417.8,241.9h7.6v35.9h13.6v6h-21.3v-41.8Z"/>
    <path class="st2" d="M464.3,274.5h-8.2l-1.7,9.3h-7.6l8.4-41.8h10.2l8.4,41.8h-7.8l-1.7-9.3ZM463.3,268.4l-3.1-17.5-3.1,17.5h6.2Z"/>
    <path class="st2" d="M483.3,283.8v-41.8h7.6v17.6h9.1v-17.6h7.6v41.8h-7.6v-18.2h-9.1v18.2h-7.6Z"/>
    <path class="st2" d="M552.7,274.5h-8.2l-1.7,9.3h-7.6l8.4-41.8h10.2l8.4,41.8h-7.8l-1.7-9.3ZM551.7,268.4l-3.1-17.5-3.1,17.5h6.2Z"/>
    <path class="st2" d="M571.6,241.9h8.4l9.7,28.1v-28.1h7.5v41.8h-8.1l-10.1-26.8v26.8h-7.5v-41.8Z"/>
    <path class="st2" d="M624.3,274.5h-8.2l-1.7,9.3h-7.6l8.4-41.8h10.2l8.4,41.8h-7.8l-1.7-9.3ZM623.3,268.4l-3.1-17.5-3.1,17.5h6.2Z"/>
    <path class="st2" d="M653.8,266.5l-2.9,4.6v12.6h-7.6v-41.8h7.6v17l10.1-17h8.2l-10.7,17.8,11.5,24.1h-8.2l-8-17.2Z"/>
    <path class="st2" d="M697.3,241.9h12c7.3,0,12,3.9,12,10v4.9c0,6-4.7,10-12,10h-4.3v17h-7.6v-41.8ZM708.9,260.8c3,0,4.7-1.4,4.7-3.9v-5.1c0-2.5-1.7-3.9-4.7-3.9h-4v12.9h4Z"/>
    <path class="st2" d="M743.6,274.5h-8.2l-1.7,9.3h-7.6l8.4-41.8h10.2l8.4,41.8h-7.8l-1.7-9.3ZM742.6,268.4l-3.1-17.5-3.1,17.5h6.2Z"/>
    <path class="st2" d="M762.5,241.9h8.4l9.7,28.1v-28.1h7.5v41.8h-8.1l-10.1-26.8v26.8h-7.5v-41.8Z"/>
    <path class="st2" d="M815.2,274.5h-8.2l-1.7,9.3h-7.6l8.4-41.8h10.2l8.4,41.8h-7.8l-1.7-9.3ZM814.2,268.4l-3.1-17.5-3.1,17.5h6.2Z"/>
    <path class="st2" d="M834.2,283.8v-41.8h7.6v17.6h9.1v-17.6h7.6v41.8h-7.6v-18.2h-9.1v18.2h-7.6Z"/>
  </g>
</svg>