<?xml version="1.0" encoding="UTF-8"?>
<svg id="Layer_1" xmlns="http://www.w3.org/2000/svg" version="1.1" viewBox="0 0 1643.2 449.2">
  <!-- Generator: Adobe Illustrator 30.1.0, SVG Export Plug-In . SVG Version: 2.1.1 Build 136)  -->
  <defs>
    <style>
      .st0 {
        fill: #0f75bc;
      }

      .st1 {
        fill: #fff;
      }

      .st2 {
        fill: #ed2628;
      }
    </style>
  </defs>
  <rect class="st1" x="330" y="241.1" width="1285.7" height="5.1"/>
  <g>
    <polygon points="1551.7 273.6 1542.2 309.7 1539.1 323.3 1536.5 311.3 1526.7 273.6 1512.9 273.6 1512.9 335.2 1521.3 335.2 1521.4 286.4 1523.2 293.6 1534.1 335.2 1544.3 335.1 1557 286.5 1556.9 335.2 1565.6 335.2 1565.6 273.6 1551.7 273.6"/>
    <polygon points="1344.1 273.6 1334.6 309.7 1331.4 323.3 1328.8 311.3 1319 273.6 1305.3 273.6 1305.3 335.2 1313.6 335.2 1313.7 286.4 1315.6 293.6 1326.4 335.2 1336.7 335.1 1349.3 286.5 1349.3 335.2 1357.9 335.2 1357.9 273.6 1344.1 273.6"/>
    <polygon points="642.8 273.7 642.7 321.9 634.5 298.6 625.4 273.7 611.9 273.5 611.8 335.2 620.2 335.2 620.3 287.1 624.1 298.2 637.6 335.2 651.2 335.1 651.2 273.7 642.8 273.7"/>
    <path d="M1196.7,273.9h-18.3s0,61.4,0,61.4l19-.2c20.4-.2,20.7-31.7,16.6-46.9-2.2-8.2-8.9-14.3-17.3-14.3ZM1198.5,325.5c-3.1,1.3-6.4,1.2-10,1.1v-44c7.5-.9,13.9.6,15.8,9,1.8,8.2,3.3,30.2-5.8,33.9Z"/>
    <path d="M930.9,272.9c-22.9-.5-23.4,34.4-17.5,50.7,2.9,8,9.6,12.7,17.5,12.5,22-.4,22.3-34.2,16.9-50.1-2.7-8-9.2-13-16.9-13.1ZM930.7,327.3c-3,.1-6.4-2.1-7.5-5.7-3.4-10.6-4.9-39.3,7-39.8,3.3-.1,6.5,2.2,7.6,5.8,3.3,10.4,5,39.2-7.1,39.7Z"/>
    <path d="M1598.1,273.8h-12.2s-14.7,61.4-14.7,61.4h9.1s3.8-16.4,3.8-16.4h14.5s3.8,16.5,3.8,16.5l10.5-.2-14.8-61.3ZM1585.8,311.3l5.5-26.4,5.2,26.1-10.8.3Z"/>
    <path d="M343.9,291.1c-.6-3,.3-6.1,2.4-8,3-2.6,7.3-2.6,10.5-.6,2.9,1.9,4.2,5.5,4.4,9.8l8.6.2c.4-5.7-1.5-12.1-6.6-15.9-6.7-5-16.6-5-23.4,0-4.8,3.6-6.2,9.4-5.6,15.1.5,5,3.9,10,9.1,12.5l11.5,5.5c5.6,2.7,8.1,9.3,4.6,14.4-2.5,3.7-7.5,4.5-11.5,2.8-3.5-1.5-5.1-5.4-5.5-10.2-2.3-.7-5.7-.6-8.8-.4-.3,5.9,1.7,11.1,5.4,14.8,3.8,3.8,9.4,5.2,15.3,4.8,9.6-.6,16-7.3,16.2-16.5.6-20.9-24.8-17.5-26.8-28.3Z"/>
    <path d="M1146,291.1c-.5-3,.3-6.1,2.4-8,3-2.6,7.3-2.6,10.5-.6,2.9,1.9,4.2,5.5,4.4,9.8l8.6.2c.4-5.7-1.5-12.1-6.6-15.9-6.7-5-16.6-5-23.4,0-4.8,3.6-6.2,9.4-5.6,15.1.5,5,3.9,10,9.1,12.5l11.5,5.5c5.6,2.7,8.1,9.2,4.6,14.4-2.5,3.7-7.5,4.5-11.5,2.8-3.5-1.5-5.1-5.4-5.5-10.2-2.2-.7-5.7-.7-8.8-.4-.3,5.9,1.7,11.1,5.4,14.8,3.8,3.8,9.4,5.2,15.3,4.8,9.6-.6,16-7.3,16.2-16.5.6-20.9-24.9-17.5-26.8-28.3Z"/>
    <path d="M1272.7,291.1c-.6-3,.3-6.1,2.4-8,3-2.6,7.3-2.6,10.5-.6,2.9,1.9,4.2,5.5,4.4,9.8l8.6.2c.4-5.9-1.6-12.5-7-16.3-6.7-4.7-16.4-4.6-22.9.3-4.8,3.6-6.2,9.4-5.6,15.1.5,5,3.9,10,9.1,12.5l11.5,5.5c5.6,2.7,8.1,9.2,4.6,14.4-2.5,3.7-7.5,4.5-11.5,2.8-3.7-1.7-5.2-5.6-5.6-10.7h-8.7c-.3,6.1,1.7,11.1,5.5,14.9,3.8,3.9,9.4,5.1,15,4.8,9.4-.4,16.5-6.9,16.6-16.9.2-20.5-24.9-17.1-26.8-27.9Z"/>
    <path d="M1481.1,291.1c-.5-3,.3-6.1,2.4-8,3-2.6,7.3-2.6,10.5-.6,2.9,1.9,4.2,5.5,4.4,9.8l8.6.2c.4-5.7-1.5-12.1-6.6-15.9-6.7-5-16.6-5-23.4,0-4.8,3.6-6.2,9.4-5.6,15.1.5,5,3.9,10,9.1,12.5l11.5,5.5c5.6,2.7,8.1,9.2,4.6,14.4-2.5,3.7-7.5,4.6-11.5,2.7-3.5-1.6-5.3-5.2-5.4-10.3-2.6-.4-5.7-.5-8.9-.3-.3,6,1.7,11.1,5.5,14.9,3.8,3.8,9.4,5.2,15.3,4.8,9.6-.6,16-7.3,16.2-16.5.6-20.9-24.9-17.5-26.8-28.3Z"/>
    <path d="M1386,274c-6.1-.5-12.5-.3-18.7,0v61.3s10.1,0,10.1,0v-24.2c13.8,1.2,24.9-4,25.6-17.8.5-10.2-6.5-18.5-17-19.2ZM1388.7,301.7c-3.3,2.5-7.5,2-11.3,2v-21.2c3.7-.3,8-.5,11.3,1.9,5.3,3.9,5.6,13.2,0,17.3Z"/>
    <path d="M569.5,289.6c-6.4-1-11.6,1.6-14.4,7.5l-.2-23.4h-8.9s0,61.6,0,61.6h9c0,0,0-25.6,0-25.6,0-3,.8-6.5,2.1-9,1.7-3.2,5.3-4.4,8.5-3.4,2.1.6,4.8,3.7,4.8,6.8l.3,31.4h9c0,0-.3-33.5-.3-33.5,0-6.3-4.9-11.5-10-12.3Z"/>
    <polygon points="446.7 290.3 436.9 290.2 423.2 309 423 273.6 414.1 273.7 414.1 335.2 423 335.3 423.3 316.4 436.8 335.2 447.4 335.1 430.1 312.3 446.7 290.3"/>
    <path d="M1060.5,289.6c-6.3-.9-11.8,1.6-14.2,7.4l-.4-6.8h-8.9s0,45.1,0,45.1h9s0-26.9,0-26.9c0-2.9,1.1-6.2,2.4-8.2,1.8-2.9,5.1-3.9,8.2-3,2.1.6,4.8,3.7,4.8,6.8l.3,31.3h9s-.3-33.5-.3-33.5c0-6.3-4.8-11.5-10-12.3Z"/>
    <path d="M812.4,289.6c-6.3-.9-11.8,1.6-14.2,7.4l-.4-6.8h-8.9s0,45.1,0,45.1h9s0-26.9,0-26.9c0-2.9,1.2-6.2,2.4-8.2,1.7-2.9,5.2-3.9,8.2-2.9,2.1.6,4.8,3.7,4.8,6.8l.3,31.3h9s-.3-33.5-.3-33.5c0-6.3-4.8-11.5-10-12.3Z"/>
    <path d="M980.3,289.6c-6.3-.9-11.8,1.6-14.2,7.4l-.4-6.8h-8.9s0,45.1,0,45.1h9s0-26.9,0-26.9c0-2.9,1.1-6.2,2.4-8.2,1.8-2.9,5.3-3.8,8.1-3,2.2.7,4.9,3.8,4.9,6.8l.3,31.3h9s-.3-33.5-.3-33.5c0-6.3-4.8-11.5-10-12.3Z"/>
    <path d="M522.1,289.4c-9.1-.2-16.1,5.9-16,15.1h7.5c.4-4,2.2-7.1,5.3-7.8,3.1-.8,6.7.2,8,3.6,1,2.8,1.2,6.3,1.1,9.4-4.5,0-8.3,0-12.4.3-6.4.5-10.9,5.5-11.1,12-.2,6.5,2.8,11.6,8.1,13.3,5.4,1.7,11.2.5,14.9-4.4l.7,4.2h8.7c0,0-.2-32.6-.2-32.6,0-8.1-7.4-13-14.7-13.1ZM527,325.6c-1.3,3.8-5.1,5.1-7.8,4.6-3.9-.6-5.8-3.7-5.8-7.7,0-3.3,2-7,5.8-7.1l8.8-.2c.1,3.6.2,7.1-1,10.4Z"/>
    <path d="M675.1,289.4c-9.1-.2-16.1,5.9-16,15.1h7.5c.4-4,2.2-7.1,5.3-7.8,3.1-.8,6.7.2,8,3.6,1,2.8,1.2,6.3,1.1,9.4-4.5,0-8.3,0-12.4.3-6.4.5-10.8,5.5-11.1,12-.2,6.5,2.8,11.6,8.1,13.3,5.4,1.7,11.2.5,14.9-4.4l.7,4.2h8.7c0,0-.2-32.6-.2-32.6,0-8.1-7.4-13-14.7-13.1ZM679.9,325.6c-1.3,3.8-5.1,5.1-7.8,4.6-3.9-.6-5.8-3.7-5.8-7.7,0-3.3,2-7,5.8-7.1l8.8-.2c.1,3.6.2,7.1-1,10.4Z"/>
    <path d="M846,289.4c-9.1-.2-16.1,5.9-16,15.1h7.5c.4-4,2.2-7.1,5.3-7.8,3.1-.8,6.7.2,8,3.6,1,2.8,1.2,6.3,1.1,9.4-4.5,0-8.3,0-12.4.3-6.4.5-10.8,5.5-11.1,12-.2,6.5,2.8,11.6,8.1,13.3,5.4,1.7,11.2.5,14.9-4.4l.7,4.2h8.7c0,0-.2-32.6-.2-32.6,0-8.1-7.4-13-14.7-13.1ZM850.8,325.6c-1.3,3.8-5.1,5.1-7.8,4.6-3.9-.6-5.8-3.7-5.8-7.7,0-3.3,2-7,5.8-7.1l8.8-.2c.1,3.6.2,7.1-1,10.4Z"/>
    <path d="M465.4,289.4c-7.4,0-13.4,4.6-15.5,12.3-2,7.2-2,15,0,22.2,2.1,7.7,8.1,12.3,15.5,12.3,7.1,0,13.1-4.2,15.4-12,2.1-7.4,2-15.3,0-22.4-2.1-7.7-8.1-12.3-15.5-12.3ZM465.4,329.1c-9.6,0-8.6-20.1-6-28.1.9-2.8,3.6-4.6,6-4.6,2.5,0,5.1,1.9,6,4.6,2.7,8.2,3.4,28.1-6,28.1Z"/>
    <path d="M766.1,289.4c-7.4,0-13.4,4.6-15.5,12.3-2,7.2-2,15,0,22.2,2.1,7.7,8.1,12.3,15.5,12.3,7.1,0,13.1-4.2,15.4-12,2.1-7.4,2-15.3,0-22.4-2.1-7.7-8.1-12.3-15.5-12.3ZM766.1,329.1c-9.6,0-8.6-20.1-6-28.1.9-2.8,3.6-4.6,6-4.6,2.5,0,5.1,1.9,6,4.6,2.7,8.2,3.4,28.1-6,28.1Z"/>
    <path d="M1109,314.9c-.4-11.9-2.3-25.2-15.4-25.5-6.6-.1-12.1,3.7-14.3,10.5-3,9.2-3.3,27,5.4,33.5,4.9,3.6,11.6,3.6,16.8.4,4.4-2.7,7.1-8,7.2-13.9-2.4-.1-5.6-.1-7.1.1-1.1,5.5-3,9.4-8,9.1-5.6-.3-7.2-8.9-7-14l22.4-.2ZM1094.4,296.4c2.2.1,4,1.7,5.7,3.6l1.8,9.4h-15.2c-.5-5.1,1.7-13.3,7.6-12.9Z"/>
    <path d="M406.6,314.9c-.4-11.9-2.3-25.2-15.4-25.5-6.6-.1-12.1,3.7-14.3,10.5-3,9.2-3.3,27,5.4,33.5,4.9,3.6,11.6,3.6,16.8.4,4.4-2.7,7.1-8,7.2-13.9-2.4-.2-5.5-.2-7.1.2-1.1,5.4-3,9.4-8,9.1-5.6-.3-7.2-8.9-7-14l22.4-.2ZM391.9,296.4c2.2.1,4,1.7,5.7,3.6l1.8,9.4h-15.2c-.5-5.1,1.7-13.3,7.6-12.9Z"/>
    <path d="M718.8,311.9l-10.7-5.5c-1.5-.8-3-3.1-3.1-4.5,0-1.7.9-4.2,2.6-5.1,2.2-1.2,5-1.1,6.9.1,1.6,1,2.2,3.3,3,5.8h7.9c.1-6.1-3-10.4-8.1-12.2-5.1-1.8-10.9-1.6-15.6.9-4,2.1-5.8,6.2-5.6,10.3.1,3.9,2.4,7.8,6.3,9.9l11.2,6c3,1.6,4.1,5.3,2.8,8.5-1,2.5-4.4,4.1-7.5,3.2-2.8-.8-4.4-3.1-5-6.9h-8.1c-.2,7.1,4.4,12.2,11.1,13.3,4.6.8,9.7.4,13.8-1.9,4.4-2.4,5.8-7,5.7-11.7-.1-4.2-3-7.9-7.5-10.3Z"/>
    <rect x="489.1" y="273.8" width="9" height="61.5"/>
    <rect x="1000.3" y="273.8" width="9" height="61.5"/>
    <rect x="870.6" y="273.8" width="9" height="61.5"/>
    <rect x="732.7" y="290.1" width="9" height="45.2"/>
    <rect x="1018.3" y="290.1" width="9" height="45.2"/>
    <path d="M1224.4,334.6l2.5,1.6-2.5,12.6c1.2.4,3.6.2,4-.8l5-12.2v-11c0,0-8.9,0-8.9,0v9.8Z"/>
    <path d="M1432.1,334.6l2.5,1.6-2.5,12.6c1.2.4,3.6.2,4-.8l5-12.2v-11c0,0-8.9,0-8.9,0v9.8Z"/>
  </g>
  <rect x="1018.1" y="273.6" width="9.4" height="11.6"/>
  <rect x="732.5" y="273.6" width="9.4" height="11.6"/>
  <g>
    <path class="st2" d="M30.4,77.9v187.4c0,23.6,15.3,52.6,38.4,76.7,31.2,32.5,77.8,56.4,99,57.2,0,0,0,0,.1,0,0,0,.1,0,.1,0,21.3-.8,67.8-24.7,99-57.2,23.1-24.1,38.4-53.1,38.4-76.7V77.9H30.4Z"/>
    <g>
      <path class="st1" d="M221,157.3s4.6-2.8,14.2-9.9c9.7-7.1,14.1-22.1,14.1-22.1h-33.3s.3,4.6.6,15.4c.4,10.8,4.3,16.6,4.3,16.6Z"/>
      <path class="st1" d="M245.4,180c7.6,5.3,13.4,7.1,13.4,7.1,0,0,4.4-7.2,3.2-18.2-1.3-10.9-5.1-22-5.1-22l-23,20.7s3.9,7,11.5,12.3Z"/>
      <path class="st1" d="M222.3,179.8l-12.6,14.7s2.8,7,24.1,17.8c21.3,10.8,32.1,8.9,32.1,8.9l-2.2-20.6s-11.7-4.9-21-9.5-20.6-11.3-20.6-11.3Z"/>
      <path class="st1" d="M233.9,231.2c-21.2-10.5-37.3-23.4-37.3-23.4l-11.4,14.3s8.5,14.9,34.7,25.9c26.2,11,43.8,13,47.4,12.3,1.3-7.5,1.7-20.6,1.7-20.6,0,0-13.7,1.9-34.9-8.6Z"/>
      <path class="st1" d="M199.8,185.1l14.2-16.3s-4.6-10.7-7.4-20.7-4.8-22.9-4.8-22.9l-21.7.9s-.4,15.2,4.3,29.6c4.7,14.3,15.4,29.3,15.4,29.3Z"/>
      <path class="st1" d="M173,213l16.3-13.3s-10.7-15.1-17-32.6c-6.3-17.5-9.8-41-9.8-41l-18.7,1s.5,21.5,6.6,46.1c6.1,24.6,22.6,39.9,22.6,39.9Z"/>
      <path class="st1" d="M169,220.2l-48,51.2s-8,0-18.4,5.3c-10.4,5.3-23.6,22.5-23.6,22.5l23.2,3.6-.9,24.9s5.2-3.2,13.6-10.7c8.4-7.5,13.3-21.6,13.3-21.6l1.4-20.4,47-49-1-8.9-6.6,3.2Z"/>
    </g>
  </g>
  <polygon class="st0" points="751.6 128.9 772.3 210.7 790 210.6 790 98.8 774.7 98.7 774.6 165.8 757.8 98.7 736.1 98.6 736.1 210.7 751.4 210.7 751.6 128.9"/>
  <polygon class="st0" points="415 128.9 435.7 210.7 453.4 210.6 453.4 98.8 438.1 98.7 438 165.8 421.2 98.7 399.5 98.6 399.5 210.7 414.8 210.7 415 128.9"/>
  <path class="st0" d="M1108.3,210.5c11.4,0,19.2-8.7,21-19.5.5-7.9.4-15.5,0-23.4-1.5-7.3-4.7-13.7-12.6-16.5,12.9-5.3,11.8-22.2,10.5-34.7-1.6-10.3-9.4-17-20-17.4-10.1-.5-20.2-.3-30.9-.2v112.1s31.9-.3,31.9-.3ZM1112.1,187.5c-.7,9.6-12.3,6.8-18.4,7.1v-34s10.1.1,10.1.1c4.4,0,7.7,3.7,8.1,8.1.6,6.2.6,12.2.1,18.8ZM1093.7,114.9h9.4c4,0,7,3.4,7.2,7.4.5,7.6,2.1,21.2-7.6,21.7l-9.1.5v-29.6Z"/>
  <path class="st0" d="M1213.6,162.9c3.6-.3,7.4-.3,11,.7,3.4,1,5.5,5.3,5.5,8.9l.2,30c0,2.7.7,5.6,1.4,8.2h17.5c-.6-2.6-1.4-4.8-1.4-6.7l-.3-26.3c-.1-9.5-.6-19.9-11-24.1,13.4-6.4,11.3-25,10.2-37.5-1.7-10-9.3-16.6-19.6-17.1-10.1-.5-20.1-.3-30.8-.3v112s17.2,0,17.2,0v-47.8ZM1229.7,121.9c.6,7.4,2.5,23.6-7,24.4-3.1.3-5.9.2-9.1.2v-31.7c5.8-.3,15.4-1.5,16.1,7.1Z"/>
  <polygon class="st0" points="1394.3 160.5 1412.6 160.5 1412.6 210.8 1430.1 210.6 1430.1 98.8 1412.7 98.6 1412.6 144.2 1394.2 144.4 1394.3 98.7 1377 98.8 1377 210.6 1394.2 210.6 1394.3 160.5"/>
  <polygon class="st0" points="882.3 160.5 900.6 160.5 900.6 210.8 918 210.6 918 98.8 900.7 98.6 900.6 144.2 882.2 144.4 882.2 98.7 865 98.8 865 210.6 882.2 210.6 882.3 160.5"/>
  <path class="st0" d="M1453.5,209c8.9,4.8,20.3,4.9,29.3-.3,7.4-4.3,11.1-12.9,11.2-21.3v-63.7c.2-5.4-1.2-10.8-3.7-15.3-8.1-14.8-31.9-14.1-41-4.9-4.6,4.6-7.5,11.2-7.5,18.1v67.1c.1,8.3,4.6,16.5,11.6,20.3ZM1467.7,113.2c4.9-.1,9,3.4,9,9.2v64.6c0,5.8-3.8,9.1-8.2,9.3-5.1.2-9.3-3.1-9.3-8.9v-65.1c0-5.5,3.8-9,8.6-9.1Z"/>
  <path class="st0" d="M1515.7,209c8.9,4.8,20.3,4.9,29.3-.3,7.4-4.3,11.1-12.9,11.2-21.3v-63.7c.2-5.4-1.2-10.8-3.7-15.3-8.1-14.8-31.9-14.1-41-4.9-4.6,4.6-7.5,11.2-7.5,18.1v67.1c.1,8.3,4.6,16.5,11.7,20.3ZM1529.9,113.2c4.9-.1,9,3.4,9,9.2v64.6c0,5.8-3.8,9.1-8.2,9.3-5.1.2-9.3-3.1-9.3-8.9v-65.1c0-5.5,3.8-9,8.6-9.1Z"/>
  <polygon class="st0" points="545.6 210.7 545.6 175.5 552.5 161.1 567 210.7 585.1 210.5 564.4 139.9 584.6 98.8 567.4 98.7 545.6 145.7 545.6 98.7 528.4 98.8 528.4 210.7 545.6 210.7"/>
  <path class="st0" d="M351.1,189h19.5s3,21.8,3,21.8h17.4c0,0-17.8-112-17.8-112h-23.5s-17.8,112-17.8,112h16.1c0,0,3.1-21.7,3.1-21.7ZM360.8,118.3l7.7,55.1-15.4.4,7.7-55.5Z"/>
  <path class="st0" d="M480.8,189h19.5s3,21.8,3,21.8h17.4c0,0-17.8-112-17.8-112h-23.5s-17.8,112-17.8,112h16.1c0,0,3.1-21.7,3.1-21.7ZM490.5,118.3l7.7,55.1-15.4.4,7.7-55.5Z"/>
  <path class="st0" d="M684.6,210.8l3.1-21.8h19.5s3,21.8,3,21.8h17.4c0,0-17.8-112-17.8-112h-23.5s-17.8,112-17.8,112h16.1ZM697.4,118.3l7.7,55.1-15.4.4,7.7-55.5Z"/>
  <path class="st0" d="M817.4,189h19.5s3,21.8,3,21.8h17.4c0,0-17.8-112-17.8-112h-23.5s-17.8,112-17.8,112h16.1c0,0,3.1-21.7,3.1-21.7ZM827.1,118.3l7.7,55.1-15.4.4,7.7-55.5Z"/>
  <path class="st0" d="M965.6,208.9c8.8,5,20.2,4.9,28.9,0,13.4-7.6,10.7-26.2,10.8-39.8h-16.4s0,18.5,0,18.5c0,5.4-3.5,8.8-8.4,8.8-4.9,0-8.4-3.3-8.4-8.9v-65.1c0-5.6,3.4-9.1,8.4-9.1,5,0,8.4,3.5,8.4,9.1v14.2s16.4,0,16.4,0c.1-6.5.3-12.9-.5-19.1-1.5-12-10.6-20-22.5-20.3-6.4-.1-12.6.3-17.9,4.2-5.9,4.3-9.7,11.6-9.7,19.4v68.4c0,8,4.2,16,10.8,19.8Z"/>
  <path class="st0" d="M1326.9,208.9c8.8,5,20.2,4.9,28.9,0,13.4-7.6,10.7-26.2,10.8-39.8h-16.4s0,18.5,0,18.5c0,5.4-3.5,8.8-8.4,8.8-4.9,0-8.4-3.3-8.4-8.9v-65.1c0-5.6,3.4-9.1,8.4-9.1,5,0,8.4,3.5,8.4,9.1v14.2s16.4,0,16.4,0c.1-6.5.3-12.9-.5-19.1-1.5-12-10.6-20-22.5-20.3-6.4-.1-12.6.3-17.9,4.2-5.9,4.3-9.7,11.6-9.7,19.4v68.4c0,8,4.2,16,10.8,19.8Z"/>
  <path class="st0" d="M1274.7,211.8c13,2.4,27-1.3,31.1-15.2,3-9.8,2.7-20.8-1.7-30.2-6.1-13-18.7-19.4-26.2-30.1-3.9-5.5-5.3-12.7-2.7-18.9,1.4-3.3,4.8-4.4,8.1-4.2,8.7.5,7.6,9.8,7.8,16.8h16.3c.3-6.6,0-12.3-1.9-18.1-4.4-13.3-17.6-16.6-30.2-14.2-20.3,3.8-22,29.7-14.9,43.9,5.3,10.6,15.1,17.4,23.3,26.3,5.7,6.2,8.2,15.1,5.7,23.3-1.4,4.4-6.1,5.6-10.3,4.8-3.7-.7-6.1-4.2-6.2-8.6l-.2-9.7h-16.3c-1.2,14.3,1.8,31.1,18.3,34Z"/>
  <path class="st0" d="M635.6,165.4l13.1-.5c10.6-.4,18.3-8.3,19.9-18.5,1.5-9.5,1.1-19.1.2-28.7-2.1-11-10.3-18.8-21.6-18.9h-28.8c0-.1,0,111.9,0,111.9h17.2s0-45.4,0-45.4ZM651.9,121.8c.3,6.6.3,13.1,0,20.1-.2,4.3-3.8,7.2-7.6,7.2h-8.7c0-.1,0-34.2,0-34.2,5.5-.2,15.8-1.5,16.3,6.9Z"/>
  <polygon class="st0" points="1186.4 210.7 1186.4 194.7 1156.6 194.5 1156.6 160.6 1180.3 160.5 1180.2 144.2 1156.6 144.3 1156.6 114.8 1186.4 114.7 1186.4 98.6 1139.4 98.8 1139.4 210.8 1186.4 210.7"/>
  <polygon class="st0" points="1030 210.8 1047.3 210.7 1047.4 163 1068 98.8 1051.2 98.8 1039.4 140 1027.6 98.7 1009.1 98.8 1029.9 163 1030 210.8"/>
  <polygon class="st0" points="1612.9 194.7 1584.7 194.6 1584.7 98.8 1567.5 98.8 1567.4 210.8 1612.9 210.7 1612.9 194.7"/>
</svg>