<?xml version="1.0" encoding="UTF-8"?>
<svg id="Layer_1" xmlns="http://www.w3.org/2000/svg" version="1.1" viewBox="0 0 1643.2 449.2">
  <!-- Generator: Adobe Illustrator 30.1.0, SVG Export Plug-In . SVG Version: 2.1.1 Build 136)  -->
  <defs>
    <style>
      .st0 {
        fill: #0f75bc;
      }

      .st1 {
        fill: #fff;
      }

      .st2 {
        fill: #ed2628;
      }
    </style>
  </defs>
  <rect class="st1" x="328.6" y="227.2" width="1285.7" height="5.1"/>
  <g>
    <polygon class="st2" points="1550.4 259.6 1540.9 295.8 1537.7 309.3 1535.1 297.3 1525.3 259.7 1511.6 259.7 1511.6 321.2 1519.9 321.3 1520 272.4 1521.9 279.6 1532.7 321.2 1543 321.2 1555.6 272.5 1555.6 321.3 1564.2 321.3 1564.2 259.7 1550.4 259.6"/>
    <polygon class="st2" points="1342.7 259.6 1333.2 295.8 1330.1 309.3 1327.5 297.3 1317.7 259.7 1303.9 259.7 1303.9 321.2 1312.3 321.3 1312.4 272.4 1314.2 279.6 1325.1 321.2 1335.3 321.2 1348 272.5 1347.9 321.3 1356.6 321.3 1356.5 259.7 1342.7 259.6"/>
    <polygon class="st2" points="641.4 259.7 641.3 307.9 633.2 284.7 624.1 259.7 610.5 259.6 610.4 321.2 618.9 321.3 619 273.1 622.8 284.2 636.2 321.2 649.8 321.1 649.8 259.7 641.4 259.7"/>
    <path class="st2" d="M1195.3,259.9h-18.3s0,61.4,0,61.4l19-.2c20.4-.2,20.7-31.7,16.6-46.9-2.2-8.2-8.9-14.3-17.3-14.3ZM1197.1,311.5c-3.1,1.3-6.4,1.2-10,1.1v-44c7.5-.9,13.9.6,15.8,9,1.8,8.2,3.3,30.2-5.8,33.9Z"/>
    <path class="st2" d="M929.6,258.9c-22.9-.5-23.4,34.4-17.5,50.7,2.9,8,9.6,12.7,17.5,12.5,22-.4,22.3-34.2,16.9-50.1-2.7-8-9.2-13-16.9-13.1ZM929.4,313.3c-3,.1-6.4-2.1-7.5-5.7-3.4-10.6-4.9-39.3,7-39.8,3.3-.1,6.5,2.2,7.6,5.8,3.3,10.4,5,39.2-7.1,39.7Z"/>
    <path class="st2" d="M1596.7,259.8h-12.2s-14.7,61.4-14.7,61.4h9.1s3.8-16.4,3.8-16.4h14.5s3.8,16.5,3.8,16.5l10.5-.2-14.8-61.3ZM1584.5,297.3l5.5-26.4,5.2,26.1-10.8.3Z"/>
    <path class="st2" d="M342.5,277.2c-.6-3,.3-6.1,2.4-8,3-2.6,7.3-2.6,10.5-.6,2.9,1.9,4.2,5.5,4.4,9.8l8.6.2c.4-5.7-1.5-12.1-6.6-15.9-6.7-5-16.6-5-23.4,0-4.8,3.6-6.2,9.4-5.6,15.1.5,5,3.9,10,9.1,12.5l11.5,5.5c5.6,2.7,8.1,9.3,4.6,14.4-2.5,3.7-7.5,4.5-11.5,2.8-3.5-1.5-5.1-5.4-5.5-10.2-2.3-.7-5.7-.6-8.8-.4-.3,5.9,1.7,11.1,5.4,14.8,3.8,3.8,9.4,5.2,15.3,4.8,9.6-.6,16-7.3,16.2-16.5.6-20.9-24.8-17.5-26.8-28.3Z"/>
    <path class="st2" d="M1144.6,277.2c-.5-3,.3-6.1,2.4-8,3-2.6,7.3-2.6,10.5-.6,2.9,1.9,4.2,5.5,4.4,9.8l8.6.2c.4-5.7-1.5-12.1-6.6-15.9-6.7-5-16.6-5-23.4,0-4.8,3.6-6.2,9.4-5.6,15.1.5,5,3.9,10,9.1,12.5l11.5,5.5c5.6,2.7,8.1,9.2,4.6,14.4-2.5,3.7-7.5,4.5-11.5,2.8-3.5-1.5-5.1-5.4-5.5-10.2-2.2-.7-5.7-.7-8.8-.4-.3,5.9,1.7,11.1,5.4,14.8,3.8,3.8,9.4,5.2,15.3,4.8,9.6-.6,16-7.3,16.2-16.5.6-20.9-24.9-17.5-26.8-28.3Z"/>
    <path class="st2" d="M1271.3,277.2c-.6-3,.3-6.1,2.4-8,3-2.6,7.3-2.6,10.5-.6,2.9,1.9,4.2,5.5,4.4,9.8l8.6.2c.4-5.9-1.6-12.5-7-16.3-6.7-4.7-16.4-4.6-22.9.3-4.8,3.6-6.2,9.4-5.6,15.1.5,5,3.9,10,9.1,12.5l11.5,5.5c5.6,2.7,8.1,9.2,4.6,14.4-2.5,3.7-7.5,4.5-11.5,2.8-3.7-1.7-5.2-5.6-5.6-10.7h-8.7c-.3,6.1,1.7,11.1,5.5,14.9,3.8,3.9,9.4,5.1,15,4.8,9.4-.4,16.5-6.9,16.6-16.9.2-20.5-24.9-17.1-26.8-27.9Z"/>
    <path class="st2" d="M1479.7,277.2c-.5-3,.3-6.1,2.4-8,3-2.6,7.3-2.6,10.5-.6,2.9,1.9,4.2,5.5,4.4,9.8l8.6.2c.4-5.7-1.5-12.1-6.6-15.9-6.7-5-16.6-5-23.4,0-4.8,3.6-6.2,9.4-5.6,15.1.5,5,3.9,10,9.1,12.5l11.5,5.5c5.6,2.7,8.1,9.2,4.6,14.4-2.5,3.7-7.5,4.6-11.5,2.7-3.5-1.6-5.3-5.2-5.4-10.3-2.6-.4-5.7-.5-8.9-.3-.3,6,1.7,11.1,5.5,14.9,3.8,3.8,9.4,5.2,15.3,4.8,9.6-.6,16-7.3,16.2-16.5.6-20.9-24.9-17.5-26.8-28.3Z"/>
    <path class="st2" d="M1384.6,260c-6.1-.5-12.5-.3-18.7,0v61.3s10.1,0,10.1,0v-24.2c13.8,1.2,24.9-4,25.6-17.8.5-10.2-6.5-18.5-17-19.2ZM1387.3,287.8c-3.3,2.5-7.5,2-11.3,2v-21.2c3.7-.3,8-.5,11.3,1.9,5.3,3.9,5.6,13.2,0,17.3Z"/>
    <path class="st2" d="M568.1,275.7c-6.4-1-11.6,1.6-14.4,7.5l-.2-23.4h-8.9s0,61.6,0,61.6h9c0,0,0-25.6,0-25.6,0-3,.8-6.5,2.1-9,1.7-3.2,5.3-4.4,8.5-3.4,2.1.6,4.8,3.7,4.8,6.8l.3,31.4h9c0,0-.3-33.5-.3-33.5,0-6.3-4.9-11.5-10-12.3Z"/>
    <polygon class="st2" points="445.3 276.4 435.5 276.3 421.8 295 421.7 259.7 412.7 259.7 412.7 321.3 421.6 321.3 421.9 302.4 435.4 321.3 446.1 321.1 428.7 298.3 445.3 276.4"/>
    <path class="st2" d="M1059.1,275.7c-6.3-.9-11.8,1.6-14.2,7.4l-.4-6.8h-8.9s0,45.1,0,45.1h9s0-26.9,0-26.9c0-2.9,1.1-6.2,2.4-8.2,1.8-2.9,5.1-3.9,8.2-3,2.1.6,4.8,3.7,4.8,6.8l.3,31.3h9s-.3-33.5-.3-33.5c0-6.3-4.8-11.5-10-12.3Z"/>
    <path class="st2" d="M811,275.7c-6.3-.9-11.8,1.6-14.2,7.4l-.4-6.8h-8.9s0,45.1,0,45.1h9s0-26.9,0-26.9c0-2.9,1.2-6.2,2.4-8.2,1.7-2.9,5.2-3.9,8.2-2.9,2.1.6,4.8,3.7,4.8,6.8l.3,31.3h9s-.3-33.5-.3-33.5c0-6.3-4.8-11.5-10-12.3Z"/>
    <path class="st2" d="M978.9,275.7c-6.3-.9-11.8,1.6-14.2,7.4l-.4-6.8h-8.9s0,45.1,0,45.1h9s0-26.9,0-26.9c0-2.9,1.1-6.2,2.4-8.2,1.8-2.9,5.3-3.8,8.1-3,2.2.7,4.9,3.8,4.9,6.8l.3,31.3h9s-.3-33.5-.3-33.5c0-6.3-4.8-11.5-10-12.3Z"/>
    <path class="st2" d="M520.8,275.4c-9.1-.2-16.1,5.9-16,15.1h7.5c.4-4,2.2-7.1,5.3-7.8,3.1-.8,6.7.2,8,3.6,1,2.8,1.2,6.3,1.1,9.4-4.5,0-8.3,0-12.4.3-6.4.5-10.9,5.5-11.1,12-.2,6.5,2.8,11.6,8.1,13.3,5.4,1.7,11.2.5,14.9-4.4l.7,4.2h8.7c0,0-.2-32.6-.2-32.6,0-8.1-7.4-13-14.7-13.1ZM525.6,311.6c-1.3,3.8-5.1,5.1-7.8,4.6-3.9-.6-5.8-3.7-5.8-7.7,0-3.3,2-7,5.8-7.1l8.8-.2c.1,3.6.2,7.1-1,10.4Z"/>
    <path class="st2" d="M673.7,275.4c-9.1-.2-16.1,5.9-16,15.1h7.5c.4-4,2.2-7.1,5.3-7.8,3.1-.8,6.7.2,8,3.6,1,2.8,1.2,6.3,1.1,9.4-4.5,0-8.3,0-12.4.3-6.4.5-10.8,5.5-11.1,12-.2,6.5,2.8,11.6,8.1,13.3,5.4,1.7,11.2.5,14.9-4.4l.7,4.2h8.7c0,0-.2-32.6-.2-32.6,0-8.1-7.4-13-14.7-13.1ZM678.5,311.6c-1.3,3.8-5.1,5.1-7.8,4.6-3.9-.6-5.8-3.7-5.8-7.7,0-3.3,2-7,5.8-7.1l8.8-.2c.1,3.6.2,7.1-1,10.4Z"/>
    <path class="st2" d="M844.6,275.4c-9.1-.2-16.1,5.9-16,15.1h7.5c.4-4,2.2-7.1,5.3-7.8,3.1-.8,6.7.2,8,3.6,1,2.8,1.2,6.3,1.1,9.4-4.5,0-8.3,0-12.4.3-6.4.5-10.8,5.5-11.1,12-.2,6.5,2.8,11.6,8.1,13.3,5.4,1.7,11.2.5,14.9-4.4l.7,4.2h8.7c0,0-.2-32.6-.2-32.6,0-8.1-7.4-13-14.7-13.1ZM849.5,311.6c-1.3,3.8-5.1,5.1-7.8,4.6-3.9-.6-5.8-3.7-5.8-7.7,0-3.3,2-7,5.8-7.1l8.8-.2c.1,3.6.2,7.1-1,10.4Z"/>
    <path class="st2" d="M464.1,275.4c-7.4,0-13.4,4.6-15.5,12.3-2,7.2-2,15,0,22.2,2.1,7.7,8.1,12.3,15.5,12.3,7.1,0,13.1-4.2,15.4-12,2.1-7.4,2-15.3,0-22.4-2.1-7.7-8.1-12.3-15.5-12.3ZM464.1,315.1c-9.6,0-8.6-20.1-6-28.1.9-2.8,3.6-4.6,6-4.6,2.5,0,5.1,1.9,6,4.6,2.7,8.2,3.4,28.1-6,28.1Z"/>
    <path class="st2" d="M764.7,275.4c-7.4,0-13.4,4.6-15.5,12.3-2,7.2-2,15,0,22.2,2.1,7.7,8.1,12.3,15.5,12.3,7.1,0,13.1-4.2,15.4-12,2.1-7.4,2-15.3,0-22.4-2.1-7.7-8.1-12.3-15.5-12.3ZM764.7,315.1c-9.6,0-8.6-20.1-6-28.1.9-2.8,3.6-4.6,6-4.6,2.5,0,5.1,1.9,6,4.6,2.7,8.2,3.4,28.1-6,28.1Z"/>
    <path class="st2" d="M1107.7,301c-.4-11.9-2.3-25.2-15.4-25.5-6.6-.1-12.1,3.7-14.3,10.5-3,9.2-3.3,27,5.4,33.5,4.9,3.6,11.6,3.6,16.8.4,4.4-2.7,7.1-8,7.2-13.9-2.4-.1-5.6-.1-7.1.1-1.1,5.5-3,9.4-8,9.1-5.6-.3-7.2-8.9-7-14l22.4-.2ZM1093,282.4c2.2.1,4,1.7,5.7,3.6l1.8,9.4h-15.2c-.5-5.1,1.7-13.3,7.6-12.9Z"/>
    <path class="st2" d="M405.3,301c-.4-11.9-2.3-25.2-15.4-25.5-6.6-.1-12.1,3.7-14.3,10.5-3,9.2-3.3,27,5.4,33.5,4.9,3.6,11.6,3.6,16.8.4,4.4-2.7,7.1-8,7.2-13.9-2.4-.2-5.5-.2-7.1.2-1.1,5.4-3,9.4-8,9.1-5.6-.3-7.2-8.9-7-14l22.4-.2ZM390.6,282.4c2.2.1,4,1.7,5.7,3.6l1.8,9.4h-15.2c-.5-5.1,1.7-13.3,7.6-12.9Z"/>
    <path class="st2" d="M717.4,297.9l-10.7-5.5c-1.5-.8-3-3.1-3.1-4.5,0-1.7.9-4.2,2.6-5.1,2.2-1.2,5-1.1,6.9.1,1.6,1,2.2,3.3,3,5.8h7.9c.1-6.1-3-10.4-8.1-12.2-5.1-1.8-10.9-1.6-15.6.9-4,2.1-5.8,6.2-5.6,10.3.1,3.9,2.4,7.8,6.3,9.9l11.2,6c3,1.6,4.1,5.3,2.8,8.5-1,2.5-4.4,4.1-7.5,3.2-2.8-.8-4.4-3.1-5-6.9h-8.1c-.2,7.1,4.4,12.2,11.1,13.3,4.6.8,9.7.4,13.8-1.9,4.4-2.4,5.8-7,5.7-11.7-.1-4.2-3-7.9-7.5-10.3Z"/>
    <rect class="st2" x="487.7" y="259.8" width="9" height="61.5"/>
    <rect class="st2" x="999" y="259.8" width="9" height="61.5"/>
    <rect class="st2" x="869.3" y="259.8" width="9" height="61.5"/>
    <rect class="st2" x="731.3" y="276.1" width="9" height="45.2"/>
    <rect class="st2" x="1017" y="276.1" width="9" height="45.2"/>
    <path class="st2" d="M1223.1,320.6l2.5,1.6-2.5,12.6c1.2.4,3.6.2,4-.8l5-12.2v-11c0,0-8.9,0-8.9,0v9.8Z"/>
    <path class="st2" d="M1430.7,320.6l2.5,1.6-2.5,12.6c1.2.4,3.6.2,4-.8l5-12.2v-11c0,0-8.9,0-8.9,0v9.8Z"/>
    <rect class="st2" x="1016.8" y="259.6" width="9.4" height="11.6"/>
    <rect class="st2" x="731.2" y="259.6" width="9.4" height="11.6"/>
  </g>
  <g>
    <path class="st2" d="M29,64v187.4c0,23.6,15.3,52.6,38.4,76.7,31.2,32.5,77.8,56.4,99,57.2,0,0,0,0,.1,0,0,0,.1,0,.1,0,21.3-.8,67.8-24.7,99-57.2,23.1-24.1,38.4-53.1,38.4-76.7V64H29Z"/>
    <g>
      <path class="st1" d="M219.7,143.3s4.6-2.8,14.2-9.9c9.7-7.1,14.1-22.1,14.1-22.1h-33.3s.3,4.6.6,15.4c.4,10.8,4.3,16.6,4.3,16.6Z"/>
      <path class="st1" d="M244,166.1c7.6,5.3,13.4,7.1,13.4,7.1,0,0,4.4-7.2,3.2-18.2-1.3-10.9-5.1-22-5.1-22l-23,20.7s3.9,7,11.5,12.3Z"/>
      <path class="st1" d="M221,165.8l-12.6,14.7s2.8,7,24.1,17.8c21.3,10.8,32.1,8.9,32.1,8.9l-2.2-20.6s-11.7-4.9-21-9.5-20.6-11.3-20.6-11.3Z"/>
      <path class="st1" d="M232.5,217.2c-21.2-10.5-37.3-23.4-37.3-23.4l-11.4,14.3s8.5,14.9,34.7,25.9c26.2,11,43.8,13,47.4,12.3,1.3-7.5,1.7-20.6,1.7-20.6,0,0-13.7,1.9-34.9-8.6Z"/>
      <path class="st1" d="M198.5,171.2l14.2-16.3s-4.6-10.7-7.4-20.7-4.8-22.9-4.8-22.9l-21.7.9s-.4,15.2,4.3,29.6c4.7,14.3,15.4,29.3,15.4,29.3Z"/>
      <path class="st1" d="M171.7,199.1l16.3-13.3s-10.7-15.1-17-32.6c-6.3-17.5-9.8-41-9.8-41l-18.7,1s.5,21.5,6.6,46.1c6.1,24.6,22.6,39.9,22.6,39.9Z"/>
      <path class="st1" d="M167.6,206.3l-48,51.2s-8,0-18.4,5.3c-10.4,5.3-23.6,22.5-23.6,22.5l23.2,3.6-.9,24.9s5.2-3.2,13.6-10.7c8.4-7.5,13.3-21.6,13.3-21.6l1.4-20.4,47-49-1-8.9-6.6,3.2Z"/>
    </g>
  </g>
  <g>
    <polygon class="st0" points="773.3 84.8 773.2 151.9 756.4 84.8 734.7 84.7 734.7 196.7 750.1 196.8 750.2 114.9 770.9 196.8 788.7 196.7 788.7 84.8 773.3 84.8"/>
    <polygon class="st0" points="436.7 84.8 436.6 151.9 419.8 84.8 398.2 84.7 398.1 196.7 413.5 196.8 413.6 114.9 434.3 196.8 452.1 196.7 452.1 84.8 436.7 84.8"/>
    <path class="st0" d="M1115.4,137.1c12.9-5.3,11.8-22.2,10.5-34.7-1.6-10.3-9.4-17-20-17.4-10.1-.5-20.2-.3-30.9-.2v112.1s31.9-.3,31.9-.3c11.4,0,19.2-8.7,21-19.5.5-7.9.4-15.5,0-23.4-1.5-7.3-4.7-13.7-12.6-16.5ZM1092.3,100.9h9.4c4,0,7,3.4,7.2,7.4.5,7.6,2.1,21.2-7.6,21.7l-9.1.5v-29.6ZM1110.7,173.5c-.7,9.6-12.3,6.8-18.4,7.1v-34s10.1.1,10.1.1c4.4,0,7.7,3.7,8.1,8.1.6,6.2.6,12.2.1,18.8Z"/>
    <path class="st0" d="M1246.2,163.8c-.1-9.5-.6-19.9-11-24.1,13.4-6.4,11.3-25,10.2-37.5-1.7-10-9.3-16.6-19.6-17.1-10.1-.5-20.1-.3-30.8-.3v112s17.2,0,17.2,0v-47.8c3.7-.3,7.4-.3,11,.7,3.4,1,5.5,5.3,5.5,8.9l.2,30c0,2.7.7,5.6,1.4,8.2h17.5c-.6-2.6-1.4-4.8-1.4-6.7l-.3-26.3ZM1221.4,132.4c-3.1.3-5.9.2-9.1.2v-31.7c5.8-.3,15.4-1.5,16.1,7.1.6,7.4,2.5,23.6-7,24.4Z"/>
    <polygon class="st0" points="1411.3 84.6 1411.2 130.2 1392.9 130.4 1392.9 84.8 1375.7 84.8 1375.7 196.6 1392.9 196.7 1392.9 146.6 1411.3 146.5 1411.3 196.8 1428.7 196.7 1428.7 84.8 1411.3 84.6"/>
    <polygon class="st0" points="899.3 84.6 899.2 130.2 880.9 130.4 880.9 84.8 863.7 84.8 863.7 196.6 880.9 196.7 880.9 146.6 899.3 146.5 899.3 196.8 916.7 196.7 916.7 84.8 899.3 84.6"/>
    <path class="st0" d="M1447.9,89.6c-4.6,4.6-7.5,11.2-7.5,18.1v67.1c.1,8.3,4.6,16.5,11.6,20.3,8.9,4.8,20.3,4.9,29.3-.3,7.4-4.3,11.1-12.9,11.2-21.3v-63.7c.2-5.4-1.2-10.8-3.7-15.3-8.1-14.8-31.9-14.1-41-4.9ZM1467.1,182.3c-5.1.2-9.3-3.1-9.3-8.9v-65.1c0-5.5,3.8-9,8.6-9.1,4.9-.1,9,3.4,9,9.2v64.6c0,5.8-3.8,9.1-8.2,9.3Z"/>
    <path class="st0" d="M1510.2,89.6c-4.6,4.6-7.5,11.2-7.5,18.1v67.1c.1,8.3,4.6,16.5,11.7,20.3,8.9,4.8,20.3,4.9,29.3-.3,7.4-4.3,11.1-12.9,11.2-21.3v-63.7c.2-5.4-1.2-10.8-3.7-15.3-8.1-14.8-31.9-14.1-41-4.9ZM1529.3,182.3c-5.1.2-9.3-3.1-9.3-8.9v-65.1c0-5.5,3.8-9,8.6-9.1,4.9-.1,9,3.4,9,9.2v64.6c0,5.8-3.8,9.1-8.2,9.3Z"/>
    <polygon class="st0" points="583.3 84.9 566.1 84.7 544.3 131.7 544.3 84.7 527.1 84.8 527.1 196.8 544.3 196.7 544.3 161.5 551.1 147.2 565.6 196.8 583.7 196.6 563 125.9 583.3 84.9"/>
    <path class="st0" d="M348.4,84.8l-17.8,112h16.1c0,0,3.1-21.7,3.1-21.7h19.5s3,21.8,3,21.8h17.4c0,0-17.8-112-17.8-112h-23.5ZM351.8,159.8l7.7-55.5,7.7,55.1-15.4.4Z"/>
    <path class="st0" d="M478.1,84.8l-17.8,112h16.1c0,0,3.1-21.7,3.1-21.7h19.5s3,21.8,3,21.8h17.4c0,0-17.8-112-17.8-112h-23.5ZM481.4,159.8l7.7-55.5,7.7,55.1-15.4.4Z"/>
    <path class="st0" d="M685,84.8l-17.8,112h16.1c0,0,3.1-21.7,3.1-21.7h19.5s3,21.8,3,21.8h17.4c0,0-17.8-112-17.8-112h-23.5ZM688.4,159.8l7.7-55.5,7.7,55.1-15.4.4Z"/>
    <path class="st0" d="M814.7,84.8l-17.8,112h16.1c0,0,3.1-21.7,3.1-21.7h19.5s3,21.8,3,21.8h17.4c0,0-17.8-112-17.8-112h-23.5ZM818,159.8l7.7-55.5,7.7,55.1-15.4.4Z"/>
    <path class="st0" d="M1003.9,155h-16.4s0,18.5,0,18.5c0,5.4-3.5,8.8-8.4,8.8-4.9,0-8.4-3.3-8.4-8.9v-65.1c0-5.6,3.4-9.1,8.4-9.1,5,0,8.4,3.5,8.4,9.1v14.2s16.4,0,16.4,0c.1-6.5.3-12.9-.5-19.1-1.5-12-10.6-20-22.5-20.3-6.4-.1-12.6.3-17.9,4.2-5.9,4.3-9.7,11.6-9.7,19.4v68.4c0,8,4.2,16,10.8,19.8,8.8,5,20.2,4.9,28.9,0,13.4-7.6,10.7-26.2,10.8-39.8Z"/>
    <path class="st0" d="M1365.3,155h-16.4s0,18.5,0,18.5c0,5.4-3.5,8.8-8.4,8.8-4.9,0-8.4-3.3-8.4-8.9v-65.1c0-5.6,3.4-9.1,8.4-9.1,5,0,8.4,3.5,8.4,9.1v14.2s16.4,0,16.4,0c.1-6.5.3-12.9-.5-19.1-1.5-12-10.6-20-22.5-20.3-6.4-.1-12.6.3-17.9,4.2-5.9,4.3-9.7,11.6-9.7,19.4v68.4c0,8,4.2,16,10.8,19.8,8.8,5,20.2,4.9,28.9,0,13.4-7.6,10.7-26.2,10.8-39.8Z"/>
    <path class="st0" d="M1276.6,122.4c-3.9-5.5-5.3-12.7-2.7-18.9,1.4-3.3,4.8-4.4,8.1-4.2,8.7.5,7.6,9.8,7.8,16.8h16.3c.3-6.6,0-12.3-1.9-18.1-4.4-13.3-17.6-16.6-30.2-14.2-20.3,3.8-22,29.7-14.9,43.9,5.3,10.6,15.1,17.4,23.3,26.3,5.7,6.2,8.2,15.1,5.7,23.3-1.4,4.4-6.1,5.6-10.3,4.8-3.7-.7-6.1-4.2-6.2-8.6l-.2-9.7h-16.3c-1.2,14.3,1.8,31.1,18.3,34,13,2.4,27-1.3,31.1-15.2,3-9.8,2.7-20.8-1.7-30.2-6.1-13-18.7-19.4-26.2-30.1Z"/>
    <path class="st0" d="M667.4,103.7c-2.1-11-10.3-18.8-21.6-18.9h-28.8c0-.1,0,111.9,0,111.9h17.2s0-45.4,0-45.4l13.1-.5c10.6-.4,18.3-8.3,19.9-18.5,1.5-9.5,1.1-19.1.2-28.7ZM650.5,127.9c-.2,4.3-3.8,7.2-7.6,7.2h-8.7c0-.1,0-34.2,0-34.2,5.5-.2,15.8-1.5,16.3,6.9.3,6.6.3,13.1,0,20.1Z"/>
    <polygon class="st0" points="1185 100.8 1185 84.7 1138 84.9 1138 196.8 1185 196.8 1185 180.7 1155.3 180.6 1155.3 146.6 1178.9 146.5 1178.9 130.2 1155.2 130.3 1155.3 100.8 1185 100.8"/>
    <polygon class="st0" points="1038 126.1 1026.3 84.7 1007.8 84.8 1028.5 149 1028.6 196.8 1046 196.7 1046 149.1 1066.7 84.9 1049.8 84.8 1038 126.1"/>
    <polygon class="st0" points="1611.5 180.7 1583.3 180.6 1583.3 84.8 1566.1 84.8 1566.1 196.8 1611.6 196.8 1611.5 180.7"/>
  </g>
</svg>